<svg width="50" height="26" viewBox="0 0 50 26" fill="none" xmlns="http://www.w3.org/2000/svg">
<rect width="50" height="26" rx="13" fill="#252B42"/>
<g clip-path="url(#clip0_3229_1726)">
<path d="M20.5 11.3H14.775L13 5.75L11.225 11.3H5.5L10.125 14.725L8.375 20.25L13 16.825L17.625 20.25L15.85 14.7L20.5 11.3Z" fill="#FFCE31"/>
</g>
<path d="M26.48 14.792V14.168L30.932 8.6H31.892L27.476 14.168L27.008 14.024H33.764V14.792H26.48ZM31.22 17V14.792L31.244 14.024V12.08H32.084V17H31.22ZM35.64 17.06C35.464 17.06 35.312 16.996 35.184 16.868C35.064 16.74 35.004 16.584 35.004 16.4C35.004 16.208 35.064 16.052 35.184 15.932C35.312 15.812 35.464 15.752 35.64 15.752C35.816 15.752 35.964 15.812 36.084 15.932C36.212 16.052 36.276 16.208 36.276 16.4C36.276 16.584 36.212 16.74 36.084 16.868C35.964 16.996 35.816 17.06 35.64 17.06ZM40.3509 8.528C41.0949 8.528 41.7229 8.696 42.2349 9.032C42.7469 9.36 43.1349 9.836 43.3989 10.46C43.6629 11.084 43.7949 11.84 43.7949 12.728C43.7949 13.672 43.6309 14.468 43.3029 15.116C42.9829 15.764 42.5349 16.252 41.9589 16.58C41.3829 16.908 40.7149 17.072 39.9549 17.072C39.5789 17.072 39.2189 17.036 38.8749 16.964C38.5389 16.892 38.2349 16.776 37.9629 16.616L38.3109 15.92C38.5269 16.064 38.7749 16.168 39.0549 16.232C39.3429 16.288 39.6389 16.316 39.9429 16.316C40.8469 16.316 41.5669 16.028 42.1029 15.452C42.6469 14.876 42.9189 14.016 42.9189 12.872C42.9189 12.688 42.9069 12.468 42.8829 12.212C42.8669 11.956 42.8229 11.7 42.7509 11.444L43.0509 11.672C42.9709 12.088 42.7989 12.444 42.5349 12.74C42.2789 13.028 41.9589 13.248 41.5749 13.4C41.1989 13.552 40.7789 13.628 40.3149 13.628C39.7629 13.628 39.2709 13.524 38.8389 13.316C38.4149 13.108 38.0829 12.816 37.8429 12.44C37.6029 12.064 37.4829 11.62 37.4829 11.108C37.4829 10.58 37.6069 10.124 37.8549 9.74C38.1029 9.356 38.4429 9.06 38.8749 8.852C39.3149 8.636 39.8069 8.528 40.3509 8.528ZM40.3869 9.26C39.9869 9.26 39.6309 9.336 39.3189 9.488C39.0149 9.632 38.7749 9.84 38.5989 10.112C38.4229 10.384 38.3349 10.708 38.3349 11.084C38.3349 11.636 38.5229 12.076 38.8989 12.404C39.2829 12.732 39.7989 12.896 40.4469 12.896C40.8789 12.896 41.2549 12.816 41.5749 12.656C41.9029 12.496 42.1549 12.276 42.3309 11.996C42.5149 11.716 42.6069 11.404 42.6069 11.06C42.6069 10.748 42.5229 10.456 42.3549 10.184C42.1869 9.912 41.9389 9.692 41.6109 9.524C41.2829 9.348 40.8749 9.26 40.3869 9.26Z" fill="white"/>
<defs>
<clipPath id="clip0_3229_1726">
<rect width="16" height="16" fill="white" transform="translate(5 5)"/>
</clipPath>
</defs>
</svg>
